<svg xmlns="http://www.w3.org/2000/svg" viewBox="0 0 64 64">
  <!-- Dark background -->
  <rect width="64" height="64" rx="14" fill="#111318"/>

  <!-- Train body -->
  <rect x="8" y="22" width="48" height="22" rx="6" fill="#0cb6eb"/>

  <!-- Cab front (right side) -->
  <path d="M44 22 Q56 22 56 30 L56 44 L44 44 Z" fill="#0997c5"/>

  <!-- Windows -->
  <rect x="13" y="27" width="9" height="8" rx="2" fill="#111318" opacity="0.8"/>
  <rect x="27" y="27" width="9" height="8" rx="2" fill="#111318" opacity="0.8"/>
  <rect x="41" y="27" width="9" height="8" rx="2.5" fill="#111318" opacity="0.6"/>

  <!-- Wheels -->
  <circle cx="18" cy="47" r="5" fill="#1a1d25" stroke="#0cb6eb" stroke-width="2"/>
  <circle cx="18" cy="47" r="2" fill="#0cb6eb"/>
  <circle cx="46" cy="47" r="5" fill="#1a1d25" stroke="#0cb6eb" stroke-width="2"/>
  <circle cx="46" cy="47" r="2" fill="#0cb6eb"/>

  <!-- Rail -->
  <rect x="4" y="52" width="56" height="2.5" rx="1.25" fill="#2a3040"/>

  <!-- Clock badge top-right -->
  <circle cx="50" cy="14" r="11" fill="#1a1d25" stroke="#22c55e" stroke-width="2"/>
  <circle cx="50" cy="14" r="1.5" fill="#22c55e"/>
  <!-- Clock hands: pointing to just past 12 (looks "on time") -->
  <line x1="50" y1="14" x2="50" y2="7"  stroke="#22c55e" stroke-width="2" stroke-linecap="round"/>
  <line x1="50" y1="14" x2="55" y2="14" stroke="#22c55e" stroke-width="1.5" stroke-linecap="round"/>
</svg>
